<svg height="400" width="150" xmlns="http://www.w3.org/2000/svg" >
  <line x1="0" y1="20" x2="100" y2="20" stroke="black" stroke-width="1"/>
  <line x1="0" y1="40" x2="100" y2="40" stroke="black" stroke-width="1"/>
  <line x1="0" y1="60" x2="100" y2="60" stroke="black" stroke-width="1"/>
  <line x1="0" y1="80" x2="100" y2="80" stroke="black" stroke-width="1"/>

  <line x1="0" y1="100" x2="100" y2="100" stroke="black" stroke-width="1"/>
  <line x1="0" y1="120" x2="100" y2="120" stroke="black" stroke-width="1"/>
  <line x1="0" y1="140" x2="100" y2="140" stroke="black" stroke-width="1"/>
  <line x1="0" y1="160" x2="100" y2="160" stroke="black" stroke-width="1"/>

  <line x1="0" y1="180" x2="100" y2="180" stroke="black" stroke-width="1"/>
  <line x1="0" y1="200" x2="100" y2="200" stroke="black" stroke-width="1"/>
  <line x1="0" y1="220" x2="100" y2="220" stroke="black" stroke-width="1"/>
  <line x1="0" y1="240" x2="100" y2="240" stroke="black" stroke-width="1"/>

  <line x1="0" y1="260" x2="100" y2="260" stroke="black" stroke-width="1"/>
  <line x1="0" y1="280" x2="100" y2="280" stroke="black" stroke-width="1"/>
  <line x1="0" y1="300" x2="100" y2="300" stroke="black" stroke-width="1"/>
  <line x1="0" y1="320" x2="100" y2="320" stroke="black" stroke-width="1"/>

  <line x1="100" y1="0" x2="100" y2="400" stroke="black" stroke-width="1"/>
  <line x1="50" y1="0" x2="50" y2="400" stroke="black" stroke-width="1"/>
</svg>
