<?xml version="1.0" encoding="iso-8859-1"?>
<!-- Generator: Adobe Illustrator 19.0.0, SVG Export Plug-In . SVG Version: 6.00 Build 0)  -->
<svg version="1.1" id="Layer_1" xmlns="http://www.w3.org/2000/svg" xmlns:xlink="http://www.w3.org/1999/xlink" x="0px" y="0px"
	 viewBox="0 0 512 512" style="enable-background:new 0 0 512 512;" xml:space="preserve">
<g>
	<g>
		<path d="M400.156,282.484c3.953-16.203,4.141-32.836,0.531-49.656c-5.562-25.898-20.125-51.539-43.312-76.195
			c-25.078-26.688-39.203-57.891-41.984-92.742c-2.094-26.289,3.391-44.961,3.438-45.117L324.578,0l-18.875,5.391
			c-51.797,14.797-88.531,35.883-112.312,64.469c-20.516,24.641-31.859,55.344-34.469,93.477
			c-9.656-4.688-19.328-8.719-20.984-9.406l-9.688-4.008l-4.172,9.617c-21.031,48.406-19.078,87.703-9.344,117.305
			C102.781,299.25,96,324.828,96,352c0,88.375,71.641,160,160,160s160-71.625,160-160C416,327.094,410.312,303.5,400.156,282.484z
			 M139.656,177.914c8.203,3.672,18.375,8.523,23.297,11.914l16.719,11.469v-20.266c0-41.273,9.844-73.172,30.109-97.523
			c18.406-22.117,46.328-39.344,85.047-52.406c-1.078,8.797-1.766,20.273-0.781,33.484c2.047,27.633,12,68.57,47.797,106.656
			c25.484,27.117,38.922,54.883,40,81.93c-19.688-25.023-46.672-44.031-77.75-53.812c-29.844-30.398-41.031-73.289-41.031-73.289
			c-27.375,22.656-43.344,45.727-48.859,71.453c-33.422,9.023-62.5,28.594-83.453,54.93
			C126.953,229.141,129.906,204.031,139.656,177.914z M271.187,192.719C266.188,192.25,261.125,192,256,192
			c-6.234,0-12.391,0.367-18.438,1.062c3.438-9.859,9.109-19.508,17.156-29.117c2.125,4.492,4.547,9.242,7.281,14.094
			C264.905,183.18,267.968,188.07,271.187,192.719z M394.266,362.656c-1.125,14.953-4.641,29.484-10.484,43.312
			c-0.859,2-1.75,4-2.688,5.953c-5.047-2.688-11.359-0.922-14.25,4.078c-2.875,4.984-1.25,11.328,3.578,14.359
			c-4.813,7.017-10.266,13.595-16.375,19.704c-6.094,6.094-12.672,11.562-19.688,16.375c-3.031-4.844-9.375-6.469-14.359-3.594
			c-5,2.891-6.766,9.188-4.078,14.25c-1.953,0.938-3.938,1.844-5.953,2.688c-13.828,5.844-28.359,9.359-43.328,10.484
			C266.438,484.562,261.75,480,256,480s-10.438,4.562-10.641,10.266c-14.969-1.125-29.5-4.641-43.328-10.484
			c-2.016-0.844-4-1.75-5.953-2.688c2.688-5.062,0.922-11.359-4.078-14.25c-4.984-2.875-11.328-1.25-14.359,3.594
			c-7.016-4.812-13.594-10.281-19.688-16.375c-6.109-6.109-11.562-12.688-16.375-19.703c4.828-3.031,6.453-9.375,3.562-14.359
			c-2.875-5-9.188-6.766-14.234-4.062c-0.938-1.969-1.828-3.953-2.688-5.969c-5.844-13.828-9.359-28.359-10.484-43.312
			C123.438,362.438,128,357.75,128,352s-4.562-10.438-10.266-10.656c1.125-14.969,4.641-29.484,10.484-43.312
			c0.859-2.016,1.75-4,2.688-5.969c5.047,2.688,11.359,0.938,14.25-4.062c2.875-4.984,1.25-11.328-3.578-14.359
			c4.812-7.016,10.266-13.594,16.375-19.695c6.094-6.094,12.672-11.562,19.688-16.375c3.031,4.844,9.375,6.461,14.359,3.578
			c5-2.883,6.766-9.188,4.078-14.242c1.953-0.938,3.938-1.836,5.953-2.688c13.828-5.844,28.359-9.359,43.328-10.484
			C245.562,219.438,250.25,224,256,224s10.438-4.562,10.641-10.266c14.969,1.125,29.5,4.641,43.328,10.484
			c2.016,0.852,4,1.75,5.953,2.688c-2.688,5.055-0.922,11.359,4.078,14.242c4.984,2.883,11.328,1.266,14.359-3.578
			c7.016,4.812,13.594,10.281,19.688,16.375c6.109,6.102,11.562,12.68,16.375,19.695c-4.828,3.031-6.453,9.375-3.578,14.359
			c2.891,5,9.203,6.766,14.25,4.062c0.938,1.969,1.828,3.953,2.688,5.969c5.844,13.828,9.359,28.344,10.484,43.312
			C388.562,341.562,384,346.25,384,352S388.562,362.438,394.266,362.656z"/>
	</g>
</g>
<g>
	<g>
		<path d="M323.875,404.797l-57.203-57.219v-80.914c0-5.891-4.781-10.664-10.672-10.664s-10.672,4.773-10.672,10.664V352
			c0,2.938,1.203,5.625,3.125,7.547l60.344,60.328c4.172,4.172,10.922,4.172,15.078,0
			C328.047,415.719,328.047,408.969,323.875,404.797z"/>
	</g>
</g>
<g>
</g>
<g>
</g>
<g>
</g>
<g>
</g>
<g>
</g>
<g>
</g>
<g>
</g>
<g>
</g>
<g>
</g>
<g>
</g>
<g>
</g>
<g>
</g>
<g>
</g>
<g>
</g>
<g>
</g>
</svg>
